# xmcd CD database file
#
# Track frame offsets:
#	150
#	15048
#	29464
#	45192
#	57019
#	74716
#	91159
#	130154
#	142804
#	169188
#	189979
#	204033
#
# Disc length: 3185 seconds
#
# Revision: 0
# Processed by: cddbd v1.5.2PL0 Copyright (c) Steve Scherf et al.
# Submitted via: CDex 1.50
#
DISCID=8c0c6f0c
DTITLE=Blues Power Band - Dark Room
DYEAR=2012
DGENRE=Blues
TTITLE0=Fr-Fr-Fr-Frustrated
TTITLE1=Insane
TTITLE2=That Will Be
TTITLE3=What You See Is What You Get
TTITLE4=Anger
TTITLE5=Who Holds The Key?
TTITLE6=All Together Now
TTITLE7=She's Running Away
TTITLE8=Dark Room
TTITLE9=For Real
TTITLE10=Tell Meeeee
TTITLE11=Memento Mori
EXTD=YEAR: 2012
EXTT0=
EXTT1=
EXTT2=
EXTT3=
EXTT4=
EXTT5=
EXTT6=
EXTT7=
EXTT8=
EXTT9=
EXTT10=
EXTT11=
PLAYORDER=
